<?xml version="1.0" encoding="UTF-8" standalone="no"?>
<!-- Created with Inkscape (http://www.inkscape.org/) -->
<svg
   xmlns:dc="http://purl.org/dc/elements/1.1/"
   xmlns:cc="http://creativecommons.org/ns#"
   xmlns:rdf="http://www.w3.org/1999/02/22-rdf-syntax-ns#"
   xmlns:svg="http://www.w3.org/2000/svg"
   xmlns="http://www.w3.org/2000/svg"
   xmlns:sodipodi="http://sodipodi.sourceforge.net/DTD/sodipodi-0.dtd"
   xmlns:inkscape="http://www.inkscape.org/namespaces/inkscape"
   width="302.65085"
   height="422.12537"
   id="svg2"
   sodipodi:version="0.32"
   inkscape:version="0.46dev+devel"
   version="1.0"
   sodipodi:docname="Fuck_You_sign.svg"
   inkscape:output_extension="org.inkscape.output.svg.inkscape">
  <defs
     id="defs4" />
  <sodipodi:namedview
     id="base"
     pagecolor="#ffffff"
     bordercolor="#666666"
     borderopacity="1.0"
     gridtolerance="10000"
     guidetolerance="10"
     objecttolerance="10"
     inkscape:pageopacity="0.0"
     inkscape:pageshadow="2"
     inkscape:zoom="0.35"
     inkscape:cx="220.27004"
     inkscape:cy="161.19446"
     inkscape:document-units="px"
     inkscape:current-layer="layer1"
     inkscape:window-width="640"
     inkscape:window-height="645"
     inkscape:window-x="381"
     inkscape:window-y="35" />
  <metadata
     id="metadata7">
    <rdf:RDF>
      <cc:Work
         rdf:about="">
        <dc:format>image/svg+xml</dc:format>
        <dc:type
           rdf:resource="http://purl.org/dc/dcmitype/StillImage" />
      </cc:Work>
    </rdf:RDF>
  </metadata>
  <g
     inkscape:label="Layer 1"
     inkscape:groupmode="layer"
     id="layer1"
     transform="translate(-79.975025,-243.33641)">
    <path
       style="fill:#000000"
       d="M 266.89396,665.46179 C 243.71025,659.32757 219.4253,657.10055 195.68347,660.68752 C 172.83936,659.06376 164.36594,631.63844 142.32331,627.99933 C 119.64994,620.68988 90.465196,613.38327 82.602236,587.65249 C 74.887836,557.90614 85.800786,528.12017 94.244346,499.86964 C 100.21964,482.47789 90.318956,465.89204 89.365816,448.7333 C 87.568266,426.68962 108.32649,413.36877 124.05994,402.19821 C 147.19541,388.50949 170.84847,374.7477 196.63959,366.81738 C 209.15431,362.05659 227.23533,378.88002 230.02905,357.62947 C 235.51715,340.23225 247.0504,325.18083 247.01032,306.01006 C 250.39541,282.19036 260.67963,255.04048 283.78956,244.21676 C 292.01971,240.66242 307.5645,249.02625 289.95849,248.91473 C 268.15151,254.41112 266.46271,280.79524 264.78114,299.2419 C 258.69231,317.29108 248.75175,333.7831 239.57918,350.39639 C 227.3122,372.39443 228.39262,398.51074 218.78366,421.53009 C 212.22082,439.52996 208.41535,458.60246 200.16232,475.92944 C 191.26569,504.6589 181.26448,523.841 168.6228,540.83022 C 153.1563,558.60911 169.59017,520.10441 172.31246,512.46607 C 182.20272,498.12279 186.77677,480.88087 194.44847,464.84468 C 195.47801,436.39447 217.5695,417.13181 174.9808,402.13641 C 152.93239,390.3696 134.22732,411.07141 124.49325,428.74765 C 107.96467,457.35764 106.5992,490.13258 94.537066,520.5323 C 87.498116,544.60981 79.893996,568.02211 90.980126,591.82623 C 101.4581,605.44955 118.54145,615.61197 132.06416,616.42398 C 141.60759,619.96579 157.61803,613.92244 165.99155,627.26415 C 201.47288,654.12576 192.45677,642.45344 227.6773,644.31766 C 249.48229,642.63734 229.77958,613.619 239.4811,601.63677 C 239.3941,584.95473 244.79644,569.32869 255.35091,549.72792 C 263.16584,529.46057 276.97397,514.75355 278.93313,491.71684 C 280.94825,472.16127 287.31579,458.41219 293.31941,441.11653 C 290.82707,424.91316 293.43992,400.18345 303.81655,392.49127 C 311.45159,363.58015 313.73635,357.86147 331.28328,311.32662 C 326.04378,307.56898 311.71761,309.47595 324.20259,301.7363 C 343.59165,288.38936 331.48654,258.57898 314.77358,251.73348 C 303.36414,248.78628 304.42309,243.74591 315.33635,248.99181 C 340.69508,259.11909 347.66051,291.63777 337.31382,314.96675 C 327.91055,333.96751 325.53775,355.5015 317.7261,375.17925 C 318.20819,393.53889 295.74699,410.88694 308.44137,428.35935 C 308.24711,440.5187 311.22366,447.24881 325.1583,449.0568 C 341.57229,465.41341 371.4102,471.92184 377.44904,497.56629 C 386.17787,516.51775 381.29113,537.89075 381.01151,557.9858 C 379.0837,581.08693 374.09226,604.1709 365.2766,625.56209 C 356.50451,646.36037 333.51094,651.31055 313.26355,649.75194 C 293.61374,645.01851 284.81126,661.98562 266.89396,665.46179 z M 292.35813,626.15022 C 304.86584,597.0852 320.58588,566.94139 330.85784,533.88242 C 338.77918,512.19132 347.68492,485.56605 332.45406,464.82866 C 320.11259,446.56946 287.53226,449.97448 293.05501,476.45461 C 287.0026,493.81429 282.8772,512.42506 274.04463,528.59089 C 247.97864,576.29823 242.29091,603.98638 249.32925,636.5836 C 270.74202,660.90571 285.20084,647.01419 292.35813,626.15022 z M 332.85437,627.70164 C 363.00392,626.45698 378.33434,566.86076 376.67052,527.87193 C 381.79219,504.05394 347.15297,454.91893 346.54594,487.66498 C 350.97,506.46764 350.10776,526.51465 341.94841,544.18923 C 323.6162,571.49324 318.98797,586.12871 309.82876,615.29488 C 303.03477,628.76124 324.76235,626.37273 332.85437,627.70164 z M 103.953,465.2404 C 111.2926,443.93408 117.00866,420.2927 134.53149,404.71225 C 113.16649,406.19293 75.272446,450.25889 101.6964,472.63224 C 102.68162,470.24231 103.20843,467.70648 103.953,465.2404 z M 213.6557,406.8918 C 227.79555,388.46923 218.66966,366.85192 198.44122,372.64091 C 186.90423,378.84631 166.57781,381.3847 160.76624,391.61816 C 179.12897,392.27687 193.11242,411.27034 211.36987,408.41806 L 213.65568,406.89179 L 213.6557,406.8918 z M 252.76145,451.76177 C 244.83525,448.7038 233.78076,441.39308 248.93977,446.28186 C 257.44338,449.13548 270.49217,462.27968 252.76145,451.76177 z M 281.35423,348.09464 C 263.13774,338.10339 288.81689,339.54825 286.27247,350.67717 L 284.39659,349.98701 L 281.35423,348.09464 L 281.35423,348.09464 z M 291.79684,335.94947 C 285.45575,332.43143 266.98497,321.35652 284.90197,327.73857 C 290.44683,329.3002 305.81132,343.18507 291.79684,335.94948 L 291.79684,335.94947 z M 292.11945,298.77147 C 277.61979,289.87878 318.80475,306.27076 312.07103,305.94111 L 296.93912,301.6474 L 292.11945,298.77147 z M 284.80063,293.63116 C 271.8882,286.30574 282.45399,252.50762 288.18163,257.22534 C 283.48327,268.53813 281.54328,281.67303 284.80063,293.63116 z"
       id="path2291"
       sodipodi:nodetypes="ccccccccccccccccccccccccccccccccccccccccccccccccsccccccccccccccccccccccccccccccccccccc" />
  </g>
</svg>
